<?xml version="1.0" encoding="UTF-8" standalone="no"?>
<svg
   xmlns:dc="http://purl.org/dc/elements/1.1/"
   xmlns:cc="http://creativecommons.org/ns#"
   xmlns:rdf="http://www.w3.org/1999/02/22-rdf-syntax-ns#"
   xmlns:svg="http://www.w3.org/2000/svg"
   xmlns="http://www.w3.org/2000/svg"
   xmlns:sodipodi="http://sodipodi.sourceforge.net/DTD/sodipodi-0.dtd"
   xmlns:inkscape="http://www.inkscape.org/namespaces/inkscape"
   width="4.5999999mm"
   height="4mm"
   viewBox="0 0 4.6 4"
   version="1.1"
   id="svg8"
   inkscape:version="1.0.2-2 (e86c870879, 2021-01-15)"
   sodipodi:docname="favicon.svg">
  <defs
     id="defs2" />
  <sodipodi:namedview
     id="base"
     pagecolor="#ffffff"
     bordercolor="#666666"
     borderopacity="1.0"
     inkscape:pageopacity="0.0"
     inkscape:pageshadow="2"
     inkscape:zoom="22.4"
     inkscape:cx="6.3738545"
     inkscape:cy="9.9820602"
     inkscape:document-units="mm"
     inkscape:current-layer="layer1"
     inkscape:document-rotation="0"
     showgrid="false"
     fit-margin-top="0"
     fit-margin-left="0"
     fit-margin-right="0"
     fit-margin-bottom="0"
     inkscape:window-width="1920"
     inkscape:window-height="1001"
     inkscape:window-x="-9"
     inkscape:window-y="-9"
     inkscape:window-maximized="1" />
  <metadata
     id="metadata5">
    <rdf:RDF>
      <cc:Work
         rdf:about="">
        <dc:format>image/svg+xml</dc:format>
        <dc:type
           rdf:resource="http://purl.org/dc/dcmitype/StillImage" />
        <dc:title></dc:title>
      </cc:Work>
    </rdf:RDF>
  </metadata>
  <g
     inkscape:label="Layer 1"
     inkscape:groupmode="layer"
     id="layer1"
     transform="translate(-8.0436406,-5.0476643)">
    <path
       style="fill:#dc143c;fill-opacity:1;stroke-width:0.0105092"
       d="m 9.1432694,8.9935616 c -0.231595,-0.0311 -0.368223,-0.17865 -0.431087,-0.465563 -0.0099,-0.04524 -0.08027,-0.518153 -0.156351,-1.050917 l -0.138328,-0.968662 -0.106354,-0.0053 c -0.12025,-0.0059 -0.143158,-0.01783 -0.160828,-0.08345 -0.01504,-0.05587 0.0035,-0.112342 0.04514,-0.137753 0.03218,-0.01963 0.05794,-0.02043 0.650682,-0.02047 l 0.617171,-4.4e-5 0.01477,-0.02365 c 0.0081,-0.01301 0.143411,-0.267195 0.300639,-0.564868 0.1572295,-0.297672 0.2961126,-0.549393 0.3086306,-0.559379 0.01339,-0.01068 0.04121,-0.01825 0.06758,-0.01839 0.06121,-3.14e-4 0.117107,0.04916 0.124396,0.110119 0.0046,0.03876 -0.01581,0.08127 -0.262756,0.54647 l -0.2677821,0.50444 0.5895551,0.0027 c 0.324256,0.0015 0.59139,8.67e-4 0.593631,-0.0014 0.0023,-0.0023 -0.114371,-0.228016 -0.259138,-0.501721 -0.292343,-0.552718 -0.292789,-0.5539 -0.233689,-0.620044 0.03818,-0.04273 0.119184,-0.05471 0.157905,-0.02335 0.01337,0.01083 0.158395,0.272607 0.322271,0.581727 l 0.297956,0.56204 0.63224,0.0053 0.632241,0.0053 0.02528,0.0294 c 0.04944,0.05749 0.04631,0.135072 -0.0073,0.180151 -0.02932,0.02467 -0.04014,0.02691 -0.130171,0.02691 h -0.0982 l -0.0058,0.0289 c -0.0032,0.0159 -0.06752,0.46398 -0.14297,0.995744 -0.08831,0.622394 -0.14641,0.999632 -0.163082,1.058876 -0.06082,0.216116 -0.157838,0.330324 -0.330445,0.388988 l -0.06876,0.02337 -1.177027,0.0015 c -0.6473651,8.2e-4 -1.2054021,-0.0023 -1.2400821,-0.007 z M 11.54176,8.7399186 c 0.06834,-0.01721 0.140127,-0.08937 0.170251,-0.171145 0.01662,-0.04512 0.0623,-0.337237 0.16427,-1.050608 0.07768,-0.54346 0.141246,-0.991795 0.141246,-0.9963 0,-0.0045 -0.149329,-0.0082 -0.331841,-0.0082 h -0.331842 l 0.04219,0.07619 0.04219,0.07619 0.06633,0.006 c 0.03648,0.0033 0.07478,0.0098 0.08511,0.01441 0.04918,0.02204 0.06788,0.13376 0.03077,0.183797 -0.03505,0.04725 -0.0809,0.05469 -0.308808,0.0501 -0.217259,-0.0044 -0.24489,-0.01023 -0.270041,-0.05725 -0.04218,-0.07886 0.0099,-0.191792 0.08841,-0.191792 0.02248,0 0.01922,-0.01311 -0.02182,-0.08778 l -0.03709,-0.06748 -0.296575,-0.0071 c -0.163116,-0.0039 -0.490468,-0.0056 -0.727449,-0.0038 l -0.4308766,0.0033 -0.03908,0.07356 c -0.04504,0.08479 -0.04612,0.08931 -0.02135,0.08937 0.03577,7.5e-5 0.08427,0.03958 0.09739,0.07931 0.01651,0.05004 -5.2e-5,0.110435 -0.03863,0.140776 -0.02585,0.02033 -0.04127,0.02158 -0.266298,0.02158 h -0.238861 l -0.02792,-0.02792 c -0.05222,-0.05222 -0.05048,-0.135928 0.0038,-0.184892 0.02767,-0.02495 0.04102,-0.02892 0.09757,-0.02908 l 0.06552,-1.78e-4 0.03941,-0.07303 c 0.02168,-0.04016 0.03941,-0.07792 0.03941,-0.08389 0,-0.0073 -0.110059,-0.01087 -0.331039,-0.01087 -0.182071,0 -0.331039,0.0015 -0.331039,0.0033 0,0.04144 0.288193,1.995277 0.300235,2.035478 0.01966,0.06565 0.06017,0.13058 0.09972,0.15985 0.06853,0.05072 0.03453,0.04938 1.2689756,0.04987 0.847007,3.05e-4 1.172297,-0.0028 1.207726,-0.01175 z m -1.233729,-0.431079 c -0.0183,-0.0048 -0.0455,-0.02327 -0.06043,-0.04102 l -0.02714,-0.03226 v -0.456864 c 0,-0.502677 7.6e-5,-0.503298 0.06351,-0.529572 0.07537,-0.03122 0.151556,-0.0032 0.174751,0.06423 0.01598,0.04645 0.01926,0.854615 0.0037,0.912373 -0.0059,0.0218 -0.01981,0.0479 -0.03097,0.05801 -0.02716,0.02458 -0.08258,0.03585 -0.123424,0.0251 z m -0.6077756,-0.07118 c -0.01156,-0.0048 -0.03284,-0.02141 -0.04729,-0.03695 l -0.02627,-0.02825 -0.0031,-0.319586 c -0.002,-0.207674 9.61e-4,-0.334513 0.0084,-0.362214 0.02254,-0.0837 0.13474,-0.113161 0.2020375,-0.05305 l 0.03432,0.03065 0.003,0.342146 c 0.0026,0.297569 8.44e-4,0.346398 -0.01384,0.374778 -0.02577,0.04984 -0.1021495,0.07531 -0.1573515,0.05248 z m 1.1751456,-0.0069 c -0.06313,-0.03113 -0.06643,-0.05112 -0.06643,-0.402711 0,-0.339668 0.0039,-0.369002 0.05377,-0.403931 0.0143,-0.01002 0.04525,-0.01714 0.07451,-0.01714 0.04044,0 0.05663,0.0059 0.08436,0.03065 l 0.03432,0.03065 0.003,0.342147 c 0.0034,0.382635 0.0016,0.393897 -0.06645,0.422344 -0.04566,0.01908 -0.07538,0.01857 -0.117122,-0.002 z"
       id="path847" />
  </g>
</svg>
