<?xml version="1.0" encoding="UTF-8" standalone="no"?>
<svg
   xmlns:dc="http://purl.org/dc/elements/1.1/"
   xmlns:cc="http://creativecommons.org/ns#"
   xmlns:rdf="http://www.w3.org/1999/02/22-rdf-syntax-ns#"
   xmlns:svg="http://www.w3.org/2000/svg"
   xmlns="http://www.w3.org/2000/svg"
   xmlns:sodipodi="http://sodipodi.sourceforge.net/DTD/sodipodi-0.dtd"
   xmlns:inkscape="http://www.inkscape.org/namespaces/inkscape"
   width="210mm"
   height="297mm"
   viewBox="0 0 210 297"
   version="1.1"
   id="svg8"
   inkscape:version="1.0.2-2 (e86c870879, 2021-01-15)"
   sodipodi:docname="edit-icon.svg">
  <defs
     id="defs2" />
  <sodipodi:namedview
     id="base"
     pagecolor="#ffffff"
     bordercolor="#666666"
     borderopacity="1.0"
     inkscape:pageopacity="0.0"
     inkscape:pageshadow="2"
     inkscape:zoom="7.9195959"
     inkscape:cx="28.150478"
     inkscape:cy="33.313246"
     inkscape:document-units="mm"
     inkscape:current-layer="layer1"
     inkscape:document-rotation="0"
     showgrid="false"
     inkscape:window-width="1758"
     inkscape:window-height="1030"
     inkscape:window-x="144"
     inkscape:window-y="0"
     inkscape:window-maximized="0" />
  <metadata
     id="metadata5">
    <rdf:RDF>
      <cc:Work
         rdf:about="">
        <dc:format>image/svg+xml</dc:format>
        <dc:type
           rdf:resource="http://purl.org/dc/dcmitype/StillImage" />
        <dc:title></dc:title>
      </cc:Work>
    </rdf:RDF>
  </metadata>
  <g
     inkscape:label="Layer 1"
     inkscape:groupmode="layer"
     id="layer1">
    <path
       style="fill:#000000;stroke-width:0.00774238"
       d="m 4.9297188,7.1137373 c -0.042658,-0.02643 -0.041778,-0.033742 0.045164,-0.3740547 L 5.0545808,6.4277329 5.3751718,6.0613943 C 5.5514969,5.8599086 5.7147783,5.6760781 5.7380205,5.6528823 l 0.042259,-0.04217 0.2242251,0.2555273 c 0.1233229,0.1405398 0.2242243,0.2576444 0.2242243,0.2602306 0,0.00255 -0.1633088,0.1881828 -0.362911,0.412434 L 5.5029086,6.9466331 5.2367735,7.036272 C 5.0903983,7.085575 4.9657428,7.125845 4.9597603,7.125759 4.9537903,7.1256758 4.9402523,7.120269 4.9297063,7.113736 Z M 5.4279326,6.8183407 c 0.00224,-0.00283 -0.040318,-0.2486691 -0.043811,-0.252643 -0.00307,-0.0035 -0.1987725,-0.050902 -0.2110993,-0.051063 -0.00431,-5.77e-5 -0.026934,0.074438 -0.050184,0.1655452 l -0.042292,0.1656453 0.030585,0.03554 0.030593,0.035539 0.1422596,-0.048243 c 0.078237,-0.026534 0.1430138,-0.049171 0.1439357,-0.050306 z M 3.1977137,6.7991662 C 3.0505827,6.7553117 2.9349582,6.6257459 2.8883733,6.4525386 2.87562,6.4051272 2.8750309,6.3344312 2.8750309,4.8529233 V 3.3029082 l 0.016081,-0.057873 c 0.047528,-0.1710289 0.1733554,-0.3022367 0.3249348,-0.3388424 0.075873,-0.018313 2.6787314,-0.018379 2.7552662,-5.77e-5 0.1478139,0.035378 0.2706996,0.1619685 0.3209586,0.3306333 l 0.019707,0.066132 0.00224,0.7804222 c 0.00124,0.4292322 7.592e-4,0.7847859 -9.957e-4,0.7901192 -0.00232,0.00701 -0.016305,0.00794 -0.049296,0.00331 -0.054755,-0.00747 -0.1395181,0.00416 -0.190718,0.026374 -0.02013,0.0087 -0.03904,0.015854 -0.042027,0.015854 -0.00299,2.9e-6 -0.00548,-0.3087591 -0.00548,-0.6861359 V 3.5467492 H 4.5935831 3.1614618 v 1.4077281 1.4077291 l 0.016313,0.036769 c 0.00953,0.021502 0.029373,0.047128 0.047761,0.061686 l 0.031431,0.024917 0.7390042,0.00227 c 0.4064531,0.00114 0.7390059,0.00407 0.7390059,0.00634 0,0.00312 -0.052233,0.2091811 -0.076951,0.3035497 -0.00357,0.013641 -0.043562,0.014427 -0.7121102,0.013916 -0.5916051,-4.56e-4 -0.7148932,-0.00246 -0.7482028,-0.01243 z M 6.1453483,5.6961342 5.9279587,5.4481972 6.0221517,5.340486 C 6.0740527,5.281137 6.129579,5.2254473 6.1458248,5.2164513 c 0.035414,-0.0196 0.087701,-0.021123 0.1248405,-0.00369 0.034095,0.016072 0.2721633,0.284239 0.2932847,0.3303609 0.020329,0.044375 0.020329,0.1126743 8.3e-6,0.1570666 -0.0083,0.018191 -0.057004,0.080482 -0.1081774,0.1384378 L 6.3627371,5.9439918 6.1453483,5.6960548 Z M 3.589281,5.6713312 v -0.165687 l 0.1432122,0.00227 0.1432129,0.00227 v 0.1612023 0.1612013 l -0.1432129,0.00227 -0.1432122,0.00227 z m 0.5728486,0 V 5.5059971 h 0.6489875 c 0.3569417,0 0.6489859,0.00283 0.6489859,0.00624 0,0.00341 -0.062845,0.077853 -0.1396541,0.1653342 L 5.1807947,5.8366305 H 4.6714621 4.1621296 Z M 3.589281,5.0182584 V 4.8525742 l 0.1432122,0.00227 0.1432129,0.00227 v 0.1612013 0.1612023 l -0.1432129,0.00227 -0.1432122,0.00227 z m 0.5728486,0 V 4.8529243 H 4.8800033 5.5978778 V 5.0182584 5.1835935 H 4.8800033 4.1621296 Z M 3.589281,4.3651856 V 4.1995013 l 0.1432122,0.00227 0.1432129,0.00227 v 0.1612022 0.1612013 l -0.1432129,0.00227 -0.1432122,0.00227 z m 0.5728486,4.16e-5 V 4.1998523 H 4.8801568 5.598184 l -0.00199,0.1632683 -0.00199,0.1632672 -0.7160606,0.00217 -0.7160599,0.00217 z"
       id="path847" />
  </g>
</svg>
